<?xml version="1.0" standalone="no"?>
<!DOCTYPE svg PUBLIC "-//W3C//DTD SVG 20010904//EN"
 "http://www.w3.org/TR/2001/REC-SVG-20010904/DTD/svg10.dtd">
<svg version="1.0" xmlns="http://www.w3.org/2000/svg"
 width="1280.000000pt" height="1264.000000pt" viewBox="0 0 1280.000000 1264.000000"
 preserveAspectRatio="xMidYMid meet">
<metadata>
Created by potrace 1.15, written by Peter Selinger 2001-2017
</metadata>
<g transform="translate(0.000000,1264.000000) scale(0.100000,-0.100000)"
fill="#ffffff" stroke="none">
<path d="M2470 12625 c-495 -73 -907 -445 -1024 -925 -35 -143 -36 -192 -36
-1445 0 -1358 -1 -1325 56 -1505 62 -197 160 -357 308 -506 176 -175 376 -285
616 -339 117 -26 337 -31 461 -10 514 86 907 461 1021 976 l23 104 0 1270 c0
1376 2 1332 -56 1520 -179 581 -765 950 -1369 860z"/>
<path d="M9366 12629 c-507 -66 -919 -434 -1047 -939 -37 -148 -40 -264 -36
-1515 l3 -1210 23 -99 c116 -513 508 -886 1020 -971 124 -21 342 -16 461 10
237 53 441 164 616 339 190 191 306 417 349 680 22 139 22 2535 0 2666 -46
272 -161 496 -349 684 -275 274 -655 404 -1040 355z"/>
<path d="M500 3827 c-154 -48 -269 -125 -355 -239 -196 -258 -190 -606 15
-852 48 -58 283 -261 547 -472 2182 -1751 4398 -2488 6623 -2203 1589 203
3175 934 4737 2182 229 182 471 388 543 461 344 349 192 958 -277 1112 -80 26
-101 29 -223 29 -121 -1 -143 -4 -208 -28 -108 -39 -165 -75 -297 -188 -774
-659 -1489 -1145 -2225 -1514 -837 -419 -1643 -655 -2495 -730 -241 -22 -728
-22 -970 0 -826 73 -1602 295 -2420 694 -762 371 -1498 868 -2300 1551 -200
169 -293 210 -495 216 -109 4 -135 1 -200 -19z"/>
</g>
</svg>
